<?xml version="1.0" standalone="yes"?>
<svg xmlns="http://www.w3.org/2000/svg" width="321" height="202">
<path style="fill:#000000; stroke:none;" d="M0 0L0 202L321 202L321 0L0 0z"/>
<path style="fill:#ffffff; stroke:none;" d="M157 8.46451C151.594 9.43704 146.182 11.5761 142.015 15.213C121.029 33.5302 137.151 69.323 165 64.6744C169.718 63.8867 174.349 61.8725 178 58.7863C183.538 54.1057 188.44 48.3402 189.674 41C192.842 22.1686 175.952 5.05472 157 8.46451z"/>
<path style="fill:#089981; stroke:none;" d="M104 52L29 127L10.0008 146C7.99262 148.023 4.20679 150.83 4.20679 154C4.20679 158.374 11.1966 163.197 14 166C23.0777 175.078 33.2097 183.775 41 194C50.971 189.35 59.2679 177.732 67 170L119 118L136.999 100C139.007 97.977 142.793 95.17 142.793 92C142.793 87.8991 136.617 83.6169 134 81C124.4 71.3996 115.105 59.8224 104 52z"/>
<path style="fill:#f23645; stroke:none;" d="M217 53L189 81C186.197 83.8034 179.207 88.6262 179.207 93C179.207 96.1699 182.993 98.977 185.001 101L203 119L255 171C262.732 178.732 271.029 190.35 281 195C288.79 184.775 298.922 176.078 308 167C310.803 164.197 317.793 159.374 317.793 155C317.793 151.83 314.007 149.023 311.999 147L294 129L244 79C235.353 70.3533 227.004 60.0473 217 53z"/>
</svg>
